# xmcd
#
# Track frame offsets:
# 150
# 18259
# 31933
# 42369
# 56193
# 72916
# 87569
# 100253
# 122017
# 138251
# 152155
# 163382
#
# Disc length: 2371 seconds
#
#
# Revision: 0
# Processed by: cddbd v1.5.2PL0 Copyright (c) Steve Scherf et al.
# Submitted via: FreeRIP 2.942 
#
DISCID=a409410c
DTITLE=Various Artist - Country Gosple Favourites
DYEAR=1900
DGENRE=
TTITLE0=The Old Rugged Cross
TTITLE1=He's Got The Whole World In His Hands
TTITLE2=On The Wings Of A Dove
TTITLE3=Amazing Grace
TTITLE4=Softly and Tenderly
TTITLE5=Rock Of Ages
TTITLE6=Just A Closer Walk With Thee
TTITLE7=How Great Thou Art
TTITLE8=What A Friend We Have In Jesus
TTITLE9=He Lives
TTITLE10=I Go To Church On Sunday
TTITLE11=When The Role Is Called Up Yonder
EXTD=
EXTT0=
EXTT1=
EXTT2=
EXTT3=
EXTT4=
EXTT5=
EXTT6=
EXTT7=
EXTT8=
EXTT9=
EXTT10=
EXTT11=
PLAYORDER=
